<?xml version="1.0"?>
<svg width="132" height="19" xmlns="http://www.w3.org/2000/svg" xmlns:svg="http://www.w3.org/2000/svg">
 <g class="layer">
  <title>Layer 1</title>
  <path d="m42.55,7.51c-0.32,0.35 -0.48,0.83 -0.48,1.44c0,0.61 0.16,1.09 0.48,1.43c0.33,0.35 0.76,0.52 1.3,0.52c0.52,0 0.94,-0.18 1.28,-0.53c0.34,-0.35 0.51,-0.83 0.51,-1.42c0,-0.6 -0.17,-1.08 -0.51,-1.43c-0.34,-0.35 -0.76,-0.53 -1.28,-0.53c-0.54,0 -0.97,0.17 -1.3,0.52l0,0zm2.22,-1.62c0.4,0.27 0.69,0.63 0.87,1.09l0,-3.67l1.7,0l0,9.02l-1.7,0l0,-1.42c-0.18,0.46 -0.47,0.82 -0.87,1.09c-0.41,0.28 -0.89,0.41 -1.46,0.41c-0.57,0 -1.08,-0.14 -1.54,-0.41c-0.45,-0.28 -0.81,-0.68 -1.06,-1.2c-0.26,-0.53 -0.39,-1.14 -0.39,-1.85c0,-0.71 0.13,-1.32 0.39,-1.84c0.25,-0.53 0.61,-0.93 1.06,-1.21c0.46,-0.27 0.97,-0.41 1.54,-0.41c0.57,0 1.05,0.13 1.46,0.4" fill="#282051" id="svg_1"/>
  <path d="m52.98,7.27c-0.31,-0.29 -0.7,-0.43 -1.15,-0.43c-0.47,0 -0.86,0.14 -1.17,0.43c-0.32,0.28 -0.49,0.7 -0.53,1.25l3.28,0c0.03,-0.55 -0.12,-0.97 -0.43,-1.25l0,0zm2.1,2.01l-4.95,0c0.03,0.6 0.19,1.04 0.49,1.33c0.3,0.28 0.67,0.43 1.12,0.43c0.4,0 0.73,-0.1 0.99,-0.3c0.27,-0.19 0.44,-0.46 0.51,-0.79l1.82,0c-0.09,0.47 -0.28,0.89 -0.58,1.27c-0.29,0.37 -0.67,0.66 -1.12,0.88c-0.46,0.21 -0.97,0.31 -1.53,0.31c-0.66,0 -1.25,-0.14 -1.76,-0.42c-0.51,-0.28 -0.91,-0.68 -1.19,-1.2c-0.29,-0.52 -0.43,-1.13 -0.43,-1.84c0,-0.71 0.14,-1.32 0.43,-1.84c0.28,-0.53 0.68,-0.93 1.19,-1.21c0.51,-0.27 1.1,-0.41 1.76,-0.41c0.66,0 1.25,0.14 1.75,0.41c0.5,0.28 0.88,0.66 1.15,1.14c0.28,0.49 0.41,1.04 0.41,1.66c0,0.17 -0.02,0.36 -0.06,0.58" fill="#282051" id="svg_2"/>
  <path d="m58.87,10.83l1.7,-5.03l1.83,0l-2.5,6.75l-2.09,0l-2.5,-6.75l1.84,0l1.72,5.03" fill="#282051" id="svg_3"/>
  <path d="m69.1,6.2c0.58,0.47 0.94,1.11 1.09,1.92l-1.81,0c-0.08,-0.35 -0.24,-0.64 -0.5,-0.84c-0.26,-0.21 -0.59,-0.32 -0.99,-0.32c-0.46,0 -0.84,0.17 -1.14,0.51c-0.31,0.34 -0.46,0.83 -0.46,1.48c0,0.65 0.15,1.14 0.46,1.48c0.3,0.34 0.68,0.51 1.14,0.51c0.4,0 0.73,-0.11 0.99,-0.31c0.26,-0.21 0.42,-0.49 0.5,-0.85l1.81,0c-0.15,0.81 -0.51,1.45 -1.09,1.92c-0.58,0.48 -1.31,0.71 -2.17,0.71c-0.66,0 -1.25,-0.14 -1.76,-0.42c-0.51,-0.28 -0.91,-0.68 -1.19,-1.2c-0.29,-0.52 -0.43,-1.13 -0.43,-1.84c0,-0.71 0.14,-1.32 0.43,-1.84c0.28,-0.53 0.68,-0.93 1.19,-1.21c0.51,-0.27 1.1,-0.41 1.76,-0.41c0.86,0 1.59,0.24 2.17,0.71" fill="#282051" id="svg_4"/>
  <path d="m77.3,6.25c0.46,0.51 0.69,1.23 0.69,2.15l0,3.93l-1.71,0l0,-3.73c0,-0.54 -0.13,-0.95 -0.41,-1.25c-0.28,-0.3 -0.65,-0.45 -1.13,-0.45c-0.49,0 -0.88,0.16 -1.17,0.48c-0.3,0.32 -0.44,0.77 -0.44,1.36l0,3.59l-1.72,0l0,-9.02l1.72,0l0,3.62c0.18,-0.46 0.47,-0.81 0.88,-1.07c0.41,-0.25 0.88,-0.38 1.42,-0.38c0.78,0 1.4,0.25 1.87,0.77" fill="#282051" id="svg_5"/>
  <path d="m81.39,7.51c-0.33,0.35 -0.49,0.83 -0.49,1.44c0,0.61 0.16,1.09 0.49,1.43c0.32,0.35 0.76,0.52 1.29,0.52c0.52,0 0.95,-0.18 1.29,-0.53c0.33,-0.35 0.5,-0.83 0.5,-1.42c0,-0.6 -0.17,-1.08 -0.5,-1.43c-0.34,-0.35 -0.77,-0.53 -1.29,-0.53c-0.53,0 -0.97,0.17 -1.29,0.52l0,0zm2.22,-1.62c0.4,0.27 0.69,0.63 0.86,1.09l0,-1.4l1.71,0l0,6.75l-1.71,0l0,-1.42c-0.17,0.46 -0.46,0.82 -0.86,1.09c-0.41,0.28 -0.9,0.41 -1.46,0.41c-0.57,0 -1.09,-0.14 -1.54,-0.41c-0.46,-0.28 -0.81,-0.68 -1.07,-1.2c-0.25,-0.53 -0.38,-1.14 -0.38,-1.85c0,-0.71 0.13,-1.32 0.38,-1.84c0.26,-0.53 0.61,-0.93 1.07,-1.21c0.45,-0.27 0.97,-0.41 1.54,-0.41c0.56,0 1.05,0.13 1.46,0.4" fill="#282051" id="svg_6"/>
  <path d="m89.46,3.31l0,9.02l-1.72,0l0,-9.02l1.72,0z" fill="#282051" id="svg_7"/>
  <path d="m92.73,3.31l0,9.02l-1.71,0l0,-9.02l1.71,0z" fill="#282051" id="svg_8"/>
  <path d="m98.48,7.27c-0.31,-0.29 -0.7,-0.43 -1.15,-0.43c-0.46,0 -0.85,0.14 -1.17,0.43c-0.32,0.28 -0.49,0.7 -0.52,1.25l3.27,0c0.03,-0.55 -0.12,-0.97 -0.43,-1.25l0,0zm2.1,2.01l-4.94,0c0.02,0.6 0.18,1.04 0.48,1.33c0.3,0.28 0.68,0.43 1.12,0.43c0.4,0 0.73,-0.1 1,-0.3c0.26,-0.19 0.43,-0.46 0.5,-0.79l1.82,0c-0.09,0.47 -0.28,0.89 -0.57,1.27c-0.3,0.37 -0.67,0.66 -1.13,0.88c-0.46,0.21 -0.97,0.31 -1.53,0.31c-0.66,0 -1.24,-0.14 -1.76,-0.42c-0.51,-0.28 -0.91,-0.68 -1.19,-1.2c-0.28,-0.52 -0.43,-1.13 -0.43,-1.84c0,-0.71 0.15,-1.32 0.43,-1.84c0.28,-0.53 0.68,-0.93 1.19,-1.21c0.52,-0.27 1.1,-0.41 1.76,-0.41c0.66,0 1.25,0.14 1.75,0.41c0.5,0.28 0.88,0.66 1.15,1.14c0.28,0.49 0.41,1.04 0.41,1.66c0,0.17 -0.02,0.36 -0.06,0.58" fill="#282051" id="svg_9"/>
  <path d="m107.75,6.25c0.46,0.51 0.69,1.23 0.69,2.15l0,3.93l-1.7,0l0,-3.73c0,-0.54 -0.14,-0.95 -0.42,-1.25c-0.27,-0.3 -0.65,-0.45 -1.13,-0.45c-0.49,0 -0.88,0.16 -1.17,0.48c-0.29,0.32 -0.44,0.77 -0.44,1.36l0,3.59l-1.72,0l0,-6.75l1.72,0l0,1.35c0.18,-0.46 0.47,-0.81 0.88,-1.07c0.41,-0.25 0.89,-0.38 1.42,-0.38c0.78,0 1.4,0.25 1.87,0.77" fill="#282051" id="svg_10"/>
  <path d="m111.84,7.51c-0.32,0.35 -0.48,0.83 -0.48,1.44c0,0.61 0.16,1.09 0.48,1.43c0.33,0.35 0.76,0.52 1.29,0.52c0.52,0 0.95,-0.18 1.29,-0.53c0.34,-0.35 0.5,-0.83 0.5,-1.42c0,-0.6 -0.16,-1.08 -0.5,-1.43c-0.34,-0.35 -0.77,-0.53 -1.29,-0.53c-0.53,0 -0.96,0.18 -1.29,0.52l0,0zm2.22,-1.62c0.41,0.27 0.69,0.63 0.86,1.09l0,-1.4l1.71,0l0,6.77c0,0.63 -0.12,1.19 -0.37,1.69c-0.25,0.5 -0.62,0.89 -1.11,1.18c-0.49,0.28 -1.09,0.42 -1.79,0.42c-0.97,0 -1.76,-0.23 -2.36,-0.69c-0.6,-0.47 -0.97,-1.1 -1.09,-1.89l1.69,0c0.09,0.34 0.28,0.61 0.57,0.8c0.27,0.19 0.63,0.28 1.07,0.28c0.51,0 0.91,-0.15 1.22,-0.44c0.31,-0.3 0.46,-0.75 0.46,-1.35l0,-1.44c-0.17,0.46 -0.45,0.82 -0.86,1.09c-0.41,0.28 -0.89,0.41 -1.46,0.41c-0.57,0 -1.08,-0.14 -1.54,-0.41c-0.45,-0.28 -0.81,-0.68 -1.06,-1.2c-0.26,-0.53 -0.39,-1.14 -0.39,-1.85c0,-0.7 0.13,-1.32 0.39,-1.84c0.25,-0.53 0.61,-0.93 1.06,-1.2c0.46,-0.28 0.97,-0.42 1.54,-0.42c0.57,0 1.05,0.14 1.46,0.4z" fill="#282051" id="svg_11"/>
  <path d="m122.38,7.27c-0.32,-0.28 -0.7,-0.43 -1.16,-0.43c-0.46,0 -0.85,0.15 -1.17,0.43c-0.31,0.28 -0.49,0.7 -0.52,1.26l3.28,0c0.02,-0.56 -0.12,-0.98 -0.43,-1.26zm2.1,2.01l-4.95,0c0.03,0.6 0.19,1.05 0.49,1.33c0.3,0.28 0.67,0.43 1.12,0.43c0.4,0 0.73,-0.1 0.99,-0.3c0.27,-0.19 0.43,-0.46 0.51,-0.79l1.81,0c-0.09,0.47 -0.28,0.9 -0.57,1.27c-0.29,0.37 -0.67,0.67 -1.13,0.88c-0.45,0.21 -0.97,0.31 -1.53,0.31c-0.65,0 -1.24,-0.14 -1.75,-0.42c-0.51,-0.28 -0.91,-0.68 -1.19,-1.2c-0.29,-0.52 -0.43,-1.13 -0.43,-1.84c0,-0.7 0.14,-1.32 0.43,-1.84c0.28,-0.53 0.68,-0.93 1.19,-1.2c0.51,-0.28 1.1,-0.42 1.75,-0.42c0.67,0 1.25,0.14 1.75,0.42c0.5,0.27 0.89,0.65 1.16,1.13c0.27,0.49 0.41,1.04 0.41,1.66c0,0.17 -0.02,0.36 -0.06,0.58" fill="#282051" id="svg_12"/>
  <path d="m130.06,6.11c0.5,0.42 0.8,0.97 0.93,1.66l-1.61,0c-0.07,-0.32 -0.22,-0.58 -0.44,-0.78c-0.23,-0.19 -0.53,-0.29 -0.89,-0.29c-0.29,0 -0.52,0.07 -0.69,0.2c-0.16,0.14 -0.24,0.33 -0.24,0.57c0,0.18 0.07,0.33 0.2,0.45c0.13,0.11 0.29,0.2 0.49,0.26c0.19,0.07 0.47,0.15 0.84,0.24c0.51,0.11 0.92,0.23 1.25,0.36c0.32,0.12 0.59,0.32 0.82,0.59c0.24,0.28 0.35,0.64 0.35,1.11c0,0.57 -0.23,1.04 -0.68,1.4c-0.45,0.35 -1.05,0.53 -1.82,0.53c-0.88,0 -1.58,-0.19 -2.11,-0.59c-0.52,-0.39 -0.85,-0.95 -0.96,-1.69l1.65,0c0.04,0.34 0.18,0.6 0.44,0.79c0.25,0.19 0.58,0.29 0.98,0.29c0.3,0 0.52,-0.07 0.67,-0.22c0.16,-0.14 0.23,-0.32 0.23,-0.55c0,-0.2 -0.06,-0.35 -0.2,-0.48c-0.13,-0.12 -0.3,-0.21 -0.5,-0.28c-0.2,-0.06 -0.48,-0.14 -0.84,-0.23c-0.51,-0.11 -0.91,-0.23 -1.23,-0.35c-0.31,-0.11 -0.58,-0.3 -0.8,-0.56c-0.23,-0.26 -0.34,-0.62 -0.34,-1.07c0,-0.59 0.23,-1.06 0.67,-1.43c0.45,-0.37 1.07,-0.55 1.86,-0.55c0.82,0 1.47,0.21 1.97,0.62" fill="#282051" id="svg_13"/>
  <path d="m35.61,11.61l-10.75,5.71c-0.34,0.19 -0.74,0.28 -1.13,0.28c-0.9,0 -1.72,-0.49 -2.15,-1.28c-0.3,-0.58 -0.36,-1.23 -0.17,-1.85c0.19,-0.62 0.61,-1.13 1.18,-1.43l10.74,-5.71c0.35,-0.19 0.74,-0.28 1.14,-0.28c0.34,0 0.66,0.07 0.96,0.2l0.18,0.09c0.42,0.22 0.77,0.57 1,1c0.01,0.01 0.01,0.03 0.02,0.04c0.6,1.17 0.14,2.61 -1.02,3.23zm-33.56,-1c0,-0.01 -0.01,-0.01 -0.02,-0.02c-0.6,-1.18 -0.15,-2.63 1.02,-3.25l10.75,-5.71c0.35,-0.18 0.74,-0.28 1.13,-0.28c0.9,0 1.72,0.49 2.15,1.28c0.3,0.58 0.36,1.23 0.17,1.85c-0.19,0.62 -0.61,1.13 -1.18,1.43l-10.74,5.71c-0.35,0.19 -0.74,0.29 -1.14,0.29c-0.34,0 -0.66,-0.07 -0.96,-0.2l-0.18,-0.1c-0.42,-0.22 -0.77,-0.57 -1,-1l0,0zm35.33,-2.69c-0.35,-0.65 -0.9,-1.16 -1.55,-1.45l-8.07,-4.29l-2.13,-1.13l-0.01,0l-0.35,-0.19c-0.45,-0.24 -0.95,-0.37 -1.46,-0.38c-0.01,0 -0.02,0 -0.03,0c-0.02,0 -0.04,0 -0.05,0l-0.01,0c-1.03,-0.01 -2.05,0.46 -2.7,1.35l-6.95,9.25c-0.14,0.19 -0.11,0.46 0.09,0.61c0.19,0.14 0.46,0.1 0.61,-0.09l6.95,-9.25c0.78,-1.09 2.3,-1.33 3.38,-0.54c0.73,0.53 1.11,1.41 0.98,2.3c-0.05,0.39 -0.21,0.77 -0.43,1.08l-7.42,9.88c-0.01,-0.29 -0.06,-0.58 -0.14,-0.86c-0.26,-0.84 -0.83,-1.53 -1.61,-1.94l-5.91,-3.15c-0.21,-0.12 -0.47,-0.04 -0.58,0.18c-0.12,0.21 -0.04,0.47 0.18,0.59l5.9,3.15c0.57,0.3 0.99,0.81 1.18,1.43c0.19,0.62 0.13,1.27 -0.17,1.85c-0.26,0.48 -0.67,0.86 -1.16,1.07c-0.06,0.02 -0.13,0.04 -0.19,0.06c-0.06,0.01 -0.12,0.04 -0.16,0.07c-0.21,0.05 -0.42,0.08 -0.64,0.08c-0.39,0 -0.78,-0.09 -1.13,-0.28l-7.28,-3.86l-1.49,-0.79c0.25,-0.07 0.49,-0.16 0.71,-0.28l10.74,-5.71c0.78,-0.41 1.35,-1.1 1.61,-1.94c0.25,-0.85 0.17,-1.74 -0.24,-2.51c-0.58,-1.08 -1.69,-1.75 -2.92,-1.75c-0.53,0 -1.07,0.13 -1.54,0.38l-10.74,5.71c-1.61,0.85 -2.22,2.85 -1.37,4.46c0.35,0.65 0.9,1.16 1.55,1.45l0.15,0.08l0.01,0l2.4,1.28l8,4.25c0.47,0.25 1.01,0.39 1.54,0.39c0.46,0 0.91,-0.1 1.32,-0.28c0.64,-0.21 1.2,-0.63 1.6,-1.17l8.5,-11.32c0.31,-0.44 0.52,-0.95 0.59,-1.48c0.08,-0.54 0.02,-1.08 -0.16,-1.58l1.3,0.69l5.55,2.95c-0.25,0.06 -0.49,0.15 -0.71,0.27l-4.84,2.57l-3.42,-1.8c-0.21,-0.11 -0.47,-0.03 -0.58,0.18c-0.11,0.22 -0.03,0.48 0.18,0.59l2.89,1.53l-4.97,2.64c-0.78,0.41 -1.35,1.1 -1.61,1.94c-0.25,0.84 -0.17,1.74 0.25,2.51c0.57,1.08 1.68,1.76 2.91,1.76c0.53,0 1.07,-0.14 1.54,-0.39l10.74,-5.71c1.61,-0.85 2.22,-2.85 1.37,-4.46" fill="#F0402C" id="svg_14"/>
  <path d="m28.08,3.34l-1.3,-0.69l0,0c-0.26,-0.67 -0.66,-1.3 -1.15,-1.6l2.13,1.13c0.16,0.37 0.27,0.76 0.32,1.16" fill="#C73622" id="svg_15"/>
  <path d="m5.39,13.84l-2.4,-1.28c0.03,0.02 0.66,0.22 1.31,0.22c0.25,0 0.51,-0.03 0.73,-0.11l1.49,0.79c-0.35,0.18 -0.73,0.31 -1.13,0.38" fill="#C73622" id="svg_16"/>
 </g>
</svg>